<?xml version="1.0" standalone="no"?>
<!DOCTYPE svg PUBLIC "-//W3C//DTD SVG 20010904//EN"
 "http://www.w3.org/TR/2001/REC-SVG-20010904/DTD/svg10.dtd">
<svg version="1.0" xmlns="http://www.w3.org/2000/svg"
 width="284.000000pt" height="284.000000pt" viewBox="0 0 284.000000 284.000000"
 preserveAspectRatio="xMidYMid meet">
<metadata>
Created by potrace 1.11, written by Peter Selinger 2001-2013
</metadata>
<g transform="translate(0.000000,284.000000) scale(0.100000,-0.100000)"
fill="#000000" stroke="none">
<path d="M1412 2808 c-10 -30 -10 -31 3 -14 13 17 21 46 12 46 -1 0 -8 -15
-15 -32z"/>
<path d="M1490 2830 c19 -4 28 -8 20 -9 -13 -1 -13 -2 0 -12 12 -8 10 -10 -10
-7 -21 4 -25 0 -27 -23 -2 -22 1 -27 15 -23 10 4 13 3 6 -3 -18 -13 -36 -53
-24 -53 5 0 10 -4 10 -10 0 -5 -6 -7 -14 -4 -8 3 -17 1 -20 -4 -3 -5 2 -9 11
-8 10 0 19 -7 21 -17 3 -15 0 -18 -17 -12 -12 3 -21 3 -20 -2 4 -23 -2 -35
-17 -29 -9 3 -12 2 -9 -5 4 -5 1 -17 -6 -25 -21 -25 -4 -24 24 1 14 14 34 25
43 25 13 0 10 -5 -10 -21 -14 -11 -24 -25 -21 -29 3 -5 -3 -14 -13 -19 -20
-11 -48 -91 -39 -113 3 -8 6 -5 6 7 1 17 3 17 11 5 7 -10 8 -4 4 20 -7 41 12
65 36 50 9 -6 10 -10 3 -10 -6 0 -10 -11 -9 -25 2 -15 -1 -22 -7 -18 -6 4 -8
0 -4 -9 3 -9 3 -19 -1 -23 -4 -3 -7 -12 -8 -18 0 -7 -2 -20 -2 -30 -2 -15 -5
-16 -24 -6 -13 6 -20 8 -16 4 4 -5 3 -14 -3 -22 -8 -8 -8 -13 -1 -13 6 0 13 6
15 13 4 9 8 8 16 -3 12 -17 8 -36 -7 -33 -5 1 -12 -4 -15 -11 -4 -9 0 -13 11
-12 9 2 18 8 20 14 6 18 16 14 31 -10 13 -21 13 -22 -2 -9 -15 12 -17 11 -17
-3 0 -9 5 -16 10 -16 6 0 10 -5 10 -11 0 -8 -5 -7 -15 1 -12 10 -19 10 -27 2
-9 -9 -9 -12 1 -12 10 0 11 -3 2 -14 -9 -11 -9 -17 1 -28 14 -15 38 -55 38
-63 0 -3 -8 -5 -17 -5 -15 0 -16 2 -3 10 8 5 10 10 4 10 -6 0 -17 -7 -24 -16
-8 -8 -9 -14 -4 -13 21 4 30 -2 31 -21 1 -13 -3 -18 -10 -14 -7 3 -4 -1 6 -9
10 -9 19 -19 20 -24 1 -4 11 -8 22 -8 11 0 23 -8 28 -18 6 -16 10 -17 22 -7 9
8 15 8 15 2 0 -14 41 -22 133 -27 l77 -4 0 100 0 100 42 39 c23 22 43 40 45
40 8 0 1 -38 -13 -65 -12 -24 -14 -49 -8 -128 5 -75 3 -105 -7 -124 -11 -20
-11 -27 -2 -30 7 -2 9 -11 6 -19 -4 -12 -8 -12 -21 -2 -13 11 -14 10 -10 -2 3
-8 13 -15 24 -15 10 -1 25 -5 33 -9 10 -6 12 -5 7 2 -5 8 4 12 26 13 62 2 71
4 75 15 6 17 -37 25 -44 8 -3 -8 -9 -14 -14 -14 -4 0 -5 7 -2 17 4 9 2 14 -3
10 -11 -7 -41 9 -33 17 5 5 117 -8 179 -20 14 -3 33 -6 43 -8 10 -1 24 -12 33
-24 18 -26 31 -27 71 -7 l30 15 -3 132 c-1 73 -6 160 -9 193 -4 33 -5 57 -1
54 22 -21 62 -389 42 -389 -5 0 -29 -19 -53 -41 -42 -39 -48 -41 -86 -34 -138
23 -1419 23 -1625 -1 -55 -6 -86 10 -78 41 4 15 0 30 -11 40 -15 16 -17 16
-27 -3 -6 -10 -17 -17 -25 -14 -11 4 -12 -2 -7 -24 4 -16 11 -31 15 -34 5 -3
11 -15 15 -26 4 -12 17 -33 31 -48 26 -28 23 -33 -16 -31 -17 1 -25 -4 -22
-11 2 -7 -1 -15 -7 -19 -9 -6 -9 -9 0 -15 18 -11 1 -33 -22 -27 -15 4 -17 3
-8 -8 9 -10 20 -9 60 6 28 10 55 19 60 19 18 0 10 -19 -11 -25 -23 -8 -36 -35
-43 -92 -5 -47 -14 -70 -40 -108 -14 -21 -15 -26 -4 -17 12 9 18 10 23 2 7
-11 -21 -39 -38 -40 -14 0 25 -50 39 -50 18 0 18 -10 0 -24 -9 -6 -16 -32 -17
-61 -3 -42 0 -50 14 -47 22 4 22 -7 0 -24 -17 -12 -16 -15 14 -43 18 -16 33
-34 33 -38 0 -5 10 -13 23 -18 12 -6 23 -16 23 -22 1 -7 3 -14 4 -15 3 -3 8
-28 15 -83 3 -22 12 -45 20 -51 20 -15 19 -26 -3 -20 -37 11 -72 14 -72 6 0
-5 -8 -10 -17 -12 -12 -3 -5 -8 20 -17 20 -7 37 -18 37 -26 0 -7 6 -18 14 -24
10 -9 16 -8 26 4 11 13 15 12 31 -9 23 -30 24 -36 2 -36 -31 0 -46 -16 -36
-35 10 -17 11 -17 30 1 42 42 50 46 57 29 3 -9 2 -13 -4 -10 -6 3 -10 -1 -10
-9 0 -9 8 -16 18 -16 15 -1 15 -2 -3 -16 -11 -8 -27 -20 -35 -27 -19 -16 -50
-29 -50 -20 0 3 8 12 18 20 15 12 13 12 -10 2 -27 -12 -33 -21 -28 -44 1 -5
-2 -7 -6 -3 -4 4 -13 3 -19 -2 -8 -7 -21 -7 -38 -1 -24 9 -25 8 -21 -17 3 -15
14 -39 24 -54 11 -15 20 -38 20 -52 0 -13 5 -26 12 -28 9 -3 9 -6 0 -12 -7 -4
-12 -2 -12 4 0 6 -4 9 -9 5 -5 -3 -12 3 -16 14 -9 29 -43 16 -37 -15 5 -26 28
-30 91 -18 l32 7 -21 19 c-12 11 -19 23 -15 26 3 4 10 1 14 -7 5 -7 11 -12 15
-12 7 1 15 0 31 -4 6 -1 16 -3 23 -3 6 -1 12 -13 12 -27 0 -28 25 -44 43 -26
6 6 16 11 22 11 5 0 -3 -11 -20 -24 -16 -13 -34 -21 -40 -18 -5 3 -4 -2 4 -11
7 -9 19 -17 27 -17 7 0 16 -5 20 -12 5 -8 -3 -9 -29 -5 -39 6 -47 -3 -47 -53
0 -16 -5 -32 -11 -35 -7 -5 -5 -13 6 -25 9 -10 15 -29 13 -41 -3 -24 -31 -59
-47 -59 -7 0 -21 -23 -21 -35 0 -1 9 -5 20 -8 21 -5 38 9 43 39 1 10 6 25 10
32 5 6 5 12 0 12 -4 0 -3 4 3 8 6 4 16 21 23 37 8 21 9 23 5 5 -3 -14 -8 -59
-11 -101 -4 -60 -2 -84 12 -112 l17 -37 118 0 118 0 -23 48 c-35 72 -56 124
-52 128 2 2 14 -5 27 -16 18 -15 26 -17 37 -8 10 8 17 8 25 0 9 -9 7 -12 -10
-12 -13 0 -22 -6 -22 -15 0 -18 31 -20 49 -2 11 10 12 9 7 -1 -10 -17 20 -62
40 -62 8 0 12 -5 9 -10 -4 -6 -12 -8 -18 -4 -7 3 -3 -2 8 -11 11 -9 19 -21 17
-26 -1 -5 371 -9 958 -9 l960 0 0 34 c0 21 -6 36 -16 40 -8 3 -12 2 -9 -4 3
-6 -1 -10 -10 -10 -10 0 -15 -6 -12 -13 10 -27 -44 -5 -56 22 -16 35 -48 71
-63 71 -7 0 -14 5 -16 12 -2 6 -19 11 -38 10 -25 -1 -30 2 -20 8 13 8 13 10 0
11 -30 3 -35 4 -67 22 -18 9 -34 17 -35 16 -2 -1 -21 4 -43 10 -22 6 -59 16
-83 21 -23 6 -40 15 -37 21 4 5 10 7 15 4 12 -7 141 -14 157 -8 15 6 17 22 4
42 -7 11 -13 10 -34 -4 -39 -25 -68 5 -33 34 10 9 16 8 26 -4 10 -12 16 -13
27 -4 11 10 11 14 1 21 -10 8 -10 11 0 15 19 7 14 68 -9 107 l-21 36 27 31
c14 18 24 38 21 46 -4 8 -6 21 -6 29 0 8 -10 14 -25 14 -28 0 -29 1 -14 53 5
21 16 37 24 37 9 0 15 10 15 25 0 22 -9 30 -33 26 -4 -1 -2 8 5 18 10 17 7 24
-25 55 -32 30 -37 33 -37 16 0 -31 -14 -24 -39 21 -17 29 -21 47 -15 67 4 15
6 37 5 49 -2 16 5 23 28 28 26 5 35 1 61 -27 16 -18 28 -41 26 -50 -2 -11 1
-15 10 -11 18 7 13 32 -14 70 -12 17 -22 45 -22 62 0 26 4 31 25 31 37 0 33
35 -5 49 -25 8 -30 15 -30 42 0 19 10 46 26 66 42 55 22 59 -22 4 -28 -35 -44
-47 -54 -41 -10 6 -6 15 18 35 35 29 44 53 13 34 -32 -21 -50 -5 -48 41 2 23
-1 44 -6 47 -5 3 -4 9 3 13 6 4 13 33 15 65 1 32 -1 52 -5 45 -6 -9 -9 -9 -16
1 -13 21 -16 59 -4 59 21 0 58 -42 53 -61 -4 -13 0 -19 11 -19 9 0 16 8 16 20
0 11 -4 20 -10 20 -5 0 -9 11 -8 25 3 35 26 31 38 -7 9 -31 9 -30 4 12 -3 25
-9 47 -14 48 -6 2 -10 10 -10 17 0 8 -10 23 -22 35 -12 11 -20 21 -17 21 15 4
62 6 52 2 -7 -2 -13 -9 -13 -14 0 -5 11 -3 25 3 26 12 32 24 15 30 -6 2 -12
16 -14 32 -2 16 -10 34 -19 41 -9 6 -17 24 -19 41 -3 26 0 29 25 27 21 -1 27
3 27 18 0 12 -7 19 -19 19 -38 0 -42 66 -6 100 14 13 25 28 25 34 0 5 -18 -7
-39 -28 -33 -32 -43 -37 -69 -31 -40 8 -42 23 -42 270 l0 203 48 5 c41 4 50 1
69 -22 l23 -26 0 24 c0 14 -8 33 -17 43 -15 17 -15 21 0 54 30 62 25 71 -43
79 -33 4 -63 11 -66 16 -8 14 14 37 55 60 67 35 77 49 73 100 l-4 47 -86 7
c-53 4 -93 13 -103 22 -12 9 -34 13 -69 11 -66 -4 -81 -22 -61 -70 8 -18 16
-52 18 -75 4 -35 2 -44 -13 -50 -23 -10 -27 -28 -28 -114 0 -44 5 -74 15 -90
9 -13 19 -40 23 -59 7 -35 7 -35 -8 -10 -9 14 -23 46 -31 73 -10 26 -23 47
-31 47 -8 0 -14 8 -14 18 0 14 2 15 10 2 19 -29 11 10 -11 53 -36 71 -73 127
-86 127 -6 0 -15 5 -19 12 -5 7 -2 8 7 3 8 -4 -16 22 -52 58 -37 37 -64 69
-61 72 3 3 -91 4 -209 4 -120 -1 -199 -5 -179 -9z m52 -54 c7 4 8 2 4 -4 -12
-19 -36 -15 -29 5 4 11 8 13 11 5 2 -7 9 -9 14 -6z m832 -45 c3 -5 15 -7 25
-4 34 9 31 -14 -6 -40 -42 -30 -53 -27 -53 12 0 37 20 55 34 32z m-399 -41 c3
-5 2 -10 -4 -10 -5 0 -13 5 -16 10 -3 6 -2 10 4 10 5 0 13 -4 16 -10z m59
-100 c24 -46 44 -111 30 -98 -4 5 -24 47 -46 95 -38 87 -27 89 16 3z m-554
-26 c0 -8 -5 -12 -10 -9 -6 4 -8 11 -5 16 9 14 15 11 15 -7z m10 -40 c0 -8
-19 -13 -24 -6 -3 5 1 9 9 9 8 0 15 -2 15 -3z m-40 -173 c0 -17 -18 -21 -24
-6 -3 9 0 15 9 15 8 0 15 -4 15 -9z m-3 -133 c0 -13 -1 -17 -4 -10 -3 6 -12
12 -21 13 -14 0 -13 2 3 9 11 5 20 9 20 9 1 1 1 -9 2 -21z m887 -320 c28 -39
17 -52 -14 -18 -34 37 -36 40 -16 40 8 0 22 -10 30 -22z m-1469 -167 c-3 -6 2
-14 12 -19 14 -8 12 -12 -14 -25 -40 -21 -88 -77 -104 -121 -13 -37 -23 -44
-34 -26 -4 7 -13 6 -27 -1 -19 -10 -20 -12 -5 -21 24 -13 22 -37 -3 -31 -15 4
-20 0 -20 -15 0 -25 18 -38 32 -24 6 6 17 8 24 5 17 -6 18 -60 2 -66 -8 -4 -7
-6 4 -6 11 -1 22 -18 32 -55 9 -30 21 -58 27 -62 8 -4 8 -1 0 13 -22 43 -38
157 -31 225 11 100 42 136 132 152 38 7 88 -1 88 -13 0 -9 -42 -8 -57 2 -14 9
-43 -19 -43 -42 0 -19 38 -41 70 -41 25 0 25 -10 -1 -55 -25 -42 -18 -58 12
-26 19 20 27 22 73 16 60 -8 66 -11 66 -31 0 -8 6 -14 13 -15 6 0 2 -4 -10 -9
-13 -5 -23 -14 -23 -19 0 -15 96 -24 120 -11 12 6 28 9 35 6 7 -2 19 2 25 10
7 8 19 14 26 14 23 0 16 -50 -16 -115 -20 -42 -25 -62 -17 -67 8 -5 6 -15 -9
-35 -19 -26 -22 -63 -5 -63 13 0 31 50 37 99 3 25 11 53 17 61 16 20 35 53 69
122 15 31 33 60 39 63 11 8 31 -16 65 -77 12 -21 26 -43 31 -50 6 -7 14 -31
18 -53 4 -22 12 -43 18 -47 8 -5 7 -11 -1 -21 -10 -11 -9 -17 4 -27 8 -8 13
-21 11 -31 -3 -12 0 -15 13 -12 10 3 21 -1 25 -8 5 -8 4 -10 -3 -5 -7 4 -12 3
-12 -3 0 -5 8 -12 18 -14 9 -3 1 -4 -18 -3 -19 2 -41 -2 -47 -7 -7 -5 -13 -6
-13 -3 0 4 -15 -3 -32 -16 -26 -18 -44 -22 -86 -21 -56 3 -97 -11 -86 -28 3
-6 23 -7 48 -4 33 5 47 3 65 -12 23 -19 24 -20 6 -47 -15 -23 -16 -32 -7 -47
8 -12 9 -19 2 -19 -7 0 -9 -13 -5 -34 7 -36 -10 -59 -26 -35 -7 12 -9 11 -10
-1 -1 -8 -1 -21 0 -28 2 -15 -49 -36 -61 -24 -5 5 -2 25 7 45 14 34 14 37 -1
37 -10 0 -14 -5 -10 -16 9 -23 -14 -41 -48 -36 -28 5 -30 3 -17 -12 12 -14 12
-16 -3 -10 -10 4 -23 -2 -36 -17 -10 -13 -19 -20 -20 -15 0 5 -9 1 -20 -9 -11
-10 -20 -14 -20 -10 0 5 -8 0 -19 -11 -35 -36 -56 -49 -85 -52 l-28 -3 21 22
c12 13 21 28 21 33 0 6 -6 4 -13 -4 -7 -8 -30 -31 -51 -50 -33 -30 -37 -32
-31 -12 5 18 2 22 -14 22 -12 0 -21 5 -21 12 0 22 -11 0 -15 -30 -2 -17 -10
-41 -18 -52 l-14 -21 -6 23 c-4 14 0 29 10 40 9 10 13 21 10 25 -4 3 -7 2 -7
-4 0 -13 -41 -31 -58 -26 -10 4 -10 8 -1 19 7 8 9 18 5 22 -4 4 -16 -3 -26
-15 -22 -28 -33 -30 -25 -4 3 11 1 23 -6 26 -8 6 -8 10 2 16 7 4 10 11 6 15
-3 4 -13 1 -22 -6 -9 -7 -15 -8 -15 -2 0 6 6 12 12 14 13 5 18 78 6 78 -5 0
-8 -7 -8 -15 0 -24 -27 -17 -49 13 -17 23 -20 24 -21 8 0 -10 8 -25 18 -32 14
-11 14 -13 2 -14 -8 0 -21 4 -27 8 -15 9 -24 92 -10 92 5 0 4 7 -3 15 -16 19
-30 19 -30 0 0 -8 -4 -15 -9 -15 -12 0 -21 38 -10 42 13 4 24 98 11 98 -5 0
-13 -7 -16 -16 -3 -8 -2 -12 4 -9 6 3 10 0 10 -8 0 -9 -10 -14 -24 -14 l-24 0
18 32 c16 28 16 34 4 39 -21 8 -17 26 6 26 11 0 20 5 20 11 0 7 -9 9 -21 6
-17 -4 -19 -3 -10 6 6 6 11 15 11 21 0 5 -3 7 -6 3 -4 -3 -13 1 -22 10 -14 14
-13 17 8 33 20 15 22 21 11 33 -10 13 -9 16 8 22 23 7 29 35 9 35 -10 0 -10 2
-1 8 7 4 12 21 12 37 -2 54 8 107 22 116 8 5 9 9 4 9 -14 0 -46 55 -38 64 3 3
14 6 24 6 14 0 19 12 24 55 4 31 12 53 18 52 6 -1 12 10 12 25 1 40 17 53 53
40 17 -6 35 -6 43 -1 20 13 31 11 24 -3 -4 -7 4 -1 16 14 23 26 47 39 34 19z
m1147 -51 c4 -24 1 -29 -15 -26 -10 1 -22 7 -25 13 -4 6 -18 13 -31 14 -39 6
-35 26 6 36 45 11 59 3 65 -37z m-1015 -62 c-3 -7 -5 -2 -5 12 0 14 2 19 5 13
2 -7 2 -19 0 -25z m1433 -28 c0 -5 -4 -10 -10 -10 -5 0 -10 5 -10 10 0 6 5 10
10 10 6 0 10 -4 10 -10z m-374 -62 c4 -6 9 -39 11 -72 3 -34 8 -62 14 -64 5
-2 2 -16 -6 -32 -11 -21 -30 -33 -77 -49 -74 -25 -78 -25 -78 -5 0 13 3 14 14
5 10 -8 16 -9 21 -1 3 6 10 8 15 5 4 -3 10 2 14 10 3 9 0 15 -9 15 -18 0 -19
12 -3 28 6 6 8 15 4 19 -4 4 -11 1 -16 -7 -6 -9 -10 -10 -10 -3 0 7 6 16 14
20 8 4 16 26 18 48 2 29 7 40 19 39 9 -1 21 7 28 17 7 13 8 19 0 19 -5 0 -7 5
-4 10 8 13 22 13 31 -2z m-606 -28 c0 -5 -5 -10 -11 -10 -5 0 -7 5 -4 10 3 6
8 10 11 10 2 0 4 -4 4 -10z m-90 -29 c0 -12 -20 -25 -27 -18 -7 7 6 27 18 27
5 0 9 -4 9 -9z m776 -128 c-2 -21 -3 -50 -4 -65 -1 -16 -8 -28 -16 -28 -7 0
-13 -10 -13 -22 -1 -42 -3 -48 -19 -48 -9 0 -14 -6 -11 -12 2 -7 0 -21 -5 -32
-8 -14 -7 -16 2 -11 8 5 11 3 8 -5 -7 -22 -25 -22 -31 0 -3 11 -10 20 -17 20
-6 0 -8 -5 -4 -11 4 -8 -1 -9 -17 -4 -31 10 -30 8 -32 49 -1 22 -7 36 -15 36
-10 0 -10 5 -2 20 6 11 15 20 21 20 6 0 7 -5 3 -11 -4 -8 3 -9 23 -5 36 8 48
-11 31 -49 -6 -14 -8 -28 -5 -32 19 -18 29 43 17 99 -7 34 -5 38 31 65 21 15
41 36 45 46 9 27 12 20 10 -20z m-248 -17 c-7 -8 -17 -12 -22 -9 -4 3 -2 9 5
14 22 13 31 11 17 -5z m-103 -36 c8 -13 -5 -13 -25 0 -13 8 -13 10 2 10 9 0
20 -4 23 -10z m55 0 c12 -8 9 -10 -13 -10 -16 0 -26 4 -22 10 8 12 16 12 35 0z
m181 -23 c-1 -12 -15 -9 -19 4 -3 6 1 10 8 8 6 -3 11 -8 11 -12z m-83 -32 c-3
-3 -13 -2 -22 1 -14 5 -15 9 -4 15 13 8 36 -6 26 -16z m-58 7 c0 -4 -5 -13
-12 -20 -9 -9 -8 -12 6 -12 9 0 15 -4 12 -8 -2 -4 10 -8 27 -7 21 0 32 -5 33
-15 3 -32 5 -34 14 -20 8 13 10 12 10 -2 0 -10 -4 -18 -10 -18 -5 0 -10 -7
-10 -16 0 -8 4 -12 10 -9 5 3 10 -4 10 -17 1 -13 2 -37 2 -55 0 -18 4 -30 9
-28 4 3 5 -4 2 -15 -3 -10 -8 -19 -12 -18 -20 2 -22 -5 -8 -26 15 -22 15 -25
0 -30 -9 -4 -25 -4 -36 0 -15 5 -17 3 -11 -7 6 -11 5 -12 -8 -2 -8 7 -18 10
-22 6 -3 -4 -12 1 -19 11 -7 10 -17 17 -22 16 -25 -5 -37 1 -31 16 5 13 1 15
-18 12 -24 -5 -42 13 -37 35 1 5 -2 6 -7 3 -5 -3 -21 0 -35 7 -18 8 -27 21
-30 47 -2 19 0 36 4 38 5 2 1 15 -9 30 -9 14 -12 23 -5 19 7 -5 6 4 -3 23 -17
34 -10 58 12 39 7 -6 46 -12 86 -14 40 -1 65 -1 56 2 -10 2 -18 9 -18 14 0 5
-8 10 -17 11 -10 0 2 4 27 8 25 4 48 8 53 8 4 1 7 -2 7 -6z m-1499 -65 c-10
-9 -11 -8 -5 6 3 10 9 15 12 12 3 -3 0 -11 -7 -18z m1263 -39 c-3 -5 -12 -8
-20 -8 -14 0 -20 31 -7 43 8 8 33 -25 27 -35z m-1154 6 c0 -8 -5 -12 -10 -9
-6 4 -8 11 -5 16 9 14 15 11 15 -7z m90 -24 c0 -5 -4 -10 -10 -10 -5 0 -10 5
-10 10 0 6 5 10 10 10 6 0 10 -4 10 -10z m1437 -57 c-12 -17 -37 8 -37 38 l0
22 23 -24 c16 -16 20 -28 14 -36z m-1452 -23 c-30 -20 -42 -20 -30 -1 3 6 10
9 15 6 5 -3 11 -1 15 5 3 5 12 10 18 10 7 0 -1 -9 -18 -20z m984 -35 c11 6 22
-20 13 -30 -4 -4 -7 -10 -7 -13 -1 -4 -6 -16 -12 -27 -12 -21 -13 -26 -13 -52
0 -9 -3 -14 -6 -10 -3 3 -4 7 -2 10 2 3 -4 13 -13 23 -18 20 -33 99 -23 115 4
6 15 4 30 -6 14 -9 28 -13 33 -10z m-1019 -44 c0 -5 -10 -11 -22 -14 -22 -6
-22 -6 -4 8 23 17 26 18 26 6z m1060 -12 c0 -5 -4 -9 -10 -9 -5 0 -10 7 -10
16 0 8 5 12 10 9 6 -3 10 -10 10 -16z m-1040 -59 c-8 -5 -19 -10 -25 -10 -5 0
-3 5 5 10 8 5 20 10 25 10 6 0 3 -5 -5 -10z m1464 -5 c-4 -8 -8 -15 -10 -15
-2 0 -4 7 -4 15 0 8 4 15 10 15 5 0 7 -7 4 -15z m-1474 -65 c0 -5 -2 -10 -4
-10 -3 0 -8 5 -11 10 -3 6 -1 10 4 10 6 0 11 -4 11 -10z m984 -49 c6 -11 4
-18 -8 -25 -41 -25 -49 -33 -38 -40 6 -3 18 1 26 10 9 8 16 12 16 8 0 -3 6 -2
13 3 19 15 42 9 39 -10 -2 -9 2 -17 8 -17 5 0 10 5 10 11 0 5 4 8 9 5 11 -7 4
-65 -10 -82 -17 -21 -32 -17 -64 16 -24 26 -26 30 -10 30 21 0 12 13 -11 16
-12 2 -14 -4 -9 -28 5 -21 4 -28 -4 -24 -6 4 -11 16 -11 28 0 11 -8 22 -20 25
-11 3 -17 9 -14 14 3 5 1 9 -4 9 -6 0 -8 -23 -5 -53 4 -48 3 -53 -17 -54 -18
-2 -19 1 -9 13 17 21 3 30 -18 12 -28 -23 -53 -30 -53 -13 0 9 -6 12 -15 9
-11 -5 -12 -11 -4 -25 6 -12 6 -19 0 -19 -5 0 -11 6 -14 13 -4 9 -7 9 -18 -1
-12 -11 -12 -14 1 -22 8 -5 11 -10 7 -10 -5 0 -1 -7 8 -16 13 -14 14 -19 3
-25 -21 -14 -32 -10 -19 5 12 14 9 18 -21 29 -22 8 -42 -25 -33 -54 6 -18 8
-19 18 -5 10 13 12 4 13 -45 1 -37 -2 -55 -7 -47 -5 7 -9 23 -9 35 0 12 -5 23
-12 25 -7 3 -12 23 -12 46 -1 28 -5 42 -14 42 -7 0 -11 -4 -7 -9 8 -14 -9 -21
-25 -10 -13 8 -12 12 4 24 11 8 27 15 35 15 21 1 68 37 59 46 -4 4 -15 1 -23
-6 -11 -9 -19 -10 -26 -3 -8 8 -5 14 10 23 12 6 18 16 15 22 -5 7 0 9 15 5 23
-6 47 24 43 55 -2 9 3 20 9 24 9 5 10 2 6 -10 -5 -12 3 -10 28 10 23 17 50 27
75 29 22 1 43 5 46 7 10 10 39 3 48 -11z m-242 -53 c-7 -7 -12 -8 -12 -2 0 14
12 26 19 19 2 -3 -1 -11 -7 -17z m-692 -49 c0 -6 -4 -7 -10 -4 -5 3 -10 11
-10 16 0 6 5 7 10 4 6 -3 10 -11 10 -16z m155 11 c-3 -5 -11 -10 -16 -10 -6 0
-7 5 -4 10 3 6 11 10 16 10 6 0 7 -4 4 -10z m-190 -10 c-4 -6 -1 -18 6 -26 6
-8 9 -18 5 -22 -4 -4 -14 2 -22 12 -10 14 -11 23 -3 33 13 15 23 18 14 3z
m311 -37 c-11 -11 -19 6 -11 24 8 17 8 17 12 0 3 -10 2 -21 -1 -24z m-66 7 c0
-5 -4 -10 -10 -10 -5 0 -10 5 -10 10 0 6 5 10 10 10 6 0 10 -4 10 -10z m-385
-10 c3 -5 2 -10 -4 -10 -5 0 -13 5 -16 10 -3 6 -2 10 4 10 5 0 13 -4 16 -10z
m1113 -20 c7 -11 9 -20 4 -20 -10 0 -32 22 -32 32 0 15 15 8 28 -12z m-965 -4
c19 7 24 -20 6 -31 -13 -9 -51 24 -43 37 4 6 9 6 14 -1 3 -7 14 -9 23 -5z
m1152 4 c3 -5 1 -10 -4 -10 -6 0 -11 5 -11 10 0 6 2 10 4 10 3 0 8 -4 11 -10z
m771 -5 c2 -5 -5 -21 -16 -35 -26 -34 -47 -16 -29 24 12 26 39 32 45 11z
m-891 -5 c3 -5 12 -7 19 -4 8 3 17 1 21 -5 3 -6 -2 -11 -12 -11 -29 0 -63 12
-63 21 0 12 27 11 35 -1z m-985 -4 c0 -3 -4 -8 -10 -11 -5 -3 -10 -1 -10 4 0
6 5 11 10 11 6 0 10 -2 10 -4z m554 -11 c-4 -8 -8 -15 -10 -15 -2 0 -4 7 -4
15 0 8 4 15 10 15 5 0 7 -7 4 -15z m-234 -21 c0 -22 -16 -17 -17 6 -1 11 2 18
8 15 5 -4 9 -13 9 -21z m-389 6 c27 -15 24 -28 -6 -22 -14 2 -25 11 -25 18 0
17 5 17 31 4z m502 -7 c-7 -2 -19 -2 -25 0 -7 3 -2 5 12 5 14 0 19 -2 13 -5z
m487 -1 c0 -4 -9 -13 -21 -20 -19 -12 -19 -11 -9 8 10 19 30 28 30 12z m94
-44 c-9 -14 -42 5 -47 27 l-4 24 27 -22 c15 -12 26 -25 24 -29z m133 10 c-3
-7 -5 -2 -5 12 0 14 2 19 5 13 2 -7 2 -19 0 -25z m-163 -46 c9 -17 16 -39 16
-48 0 -14 -4 -12 -23 7 -25 27 -47 71 -47 96 0 14 3 14 19 -4 10 -11 26 -34
35 -51z m104 13 c-3 -3 -9 2 -12 12 -6 14 -5 15 5 6 7 -7 10 -15 7 -18z
m-1058 11 c0 -3 -4 -8 -10 -11 -5 -3 -10 -1 -10 4 0 6 5 11 10 11 6 0 10 -2
10 -4z m551 -33 c-12 -20 -14 -14 -5 12 4 9 9 14 11 11 3 -2 0 -13 -6 -23z
m132 13 c4 -10 1 -13 -8 -9 -8 3 -12 9 -9 14 7 12 11 11 17 -5z m-743 -6 c0
-5 -5 -10 -11 -10 -5 0 -7 5 -4 10 3 6 8 10 11 10 2 0 4 -4 4 -10z m1059 -4
c7 -8 9 -25 5 -40 -5 -20 -2 -26 10 -26 11 0 15 -9 13 -30 -2 -29 -21 -37 -23
-9 0 8 -3 21 -6 29 -27 75 -26 109 1 76z m-421 -47 c-1 -17 -4 -25 -8 -18 -7
10 -2 49 5 49 2 0 3 -14 3 -31z m166 19 c4 4 5 -5 1 -21 -5 -20 -3 -27 7 -27
18 0 18 -73 -1 -90 -11 -11 -12 -9 -7 8 4 12 1 32 -5 44 -7 13 -12 33 -10 46
1 12 -2 22 -8 22 -6 0 -11 7 -11 16 0 13 3 14 13 5 8 -6 17 -7 21 -3z m-34
-40 c0 -16 -3 -18 -13 -9 -8 6 -17 8 -20 4 -4 -3 -7 1 -7 10 0 16 19 28 33 20
4 -2 7 -13 7 -25z m-383 -20 c-3 -8 -6 -5 -6 6 -1 11 2 17 5 13 3 -3 4 -12 1
-19z m663 -77 c-5 -9 -11 -25 -15 -35 -10 -34 -14 -12 -5 34 5 25 5 49 0 53
-4 5 -5 18 -2 30 4 16 8 12 18 -23 8 -25 9 -49 4 -59z m-320 59 c-6 -11 -16
-20 -22 -20 -6 0 -3 9 7 20 10 11 20 20 22 20 2 0 -1 -9 -7 -20z m-60 -20 c0
-5 -5 -10 -11 -10 -5 0 -7 5 -4 10 3 6 8 10 11 10 2 0 4 -4 4 -10z m80 -30 c0
-11 -4 -20 -9 -20 -5 0 -7 9 -4 20 3 11 7 20 9 20 2 0 4 -9 4 -20z m-530 0
c-8 -5 -19 -10 -25 -10 -5 0 -3 5 5 10 8 5 20 10 25 10 6 0 3 -5 -5 -10z m-10
-61 c0 -6 -4 -7 -10 -4 -5 3 -10 11 -10 16 0 6 5 7 10 4 6 -3 10 -11 10 -16z
m1450 5 c0 -8 -5 -12 -10 -9 -6 4 -8 11 -5 16 9 14 15 11 15 -7z m527 -250
c-3 -3 -12 -4 -19 -1 -8 3 -5 6 6 6 11 1 17 -2 13 -5z m40 0 c-3 -3 -12 -4
-19 -1 -8 3 -5 6 6 6 11 1 17 -2 13 -5z"/>
<path d="M1187 1219 c-10 -6 -41 -13 -69 -15 -53 -5 -66 -9 -56 -20 10 -10
122 15 137 31 18 17 13 19 -12 4z"/>
<path d="M595 1190 c-3 -5 1 -10 9 -10 9 0 16 5 16 10 0 6 -4 10 -9 10 -6 0
-13 -4 -16 -10z"/>
<path d="M646 984 c-8 -21 -8 -24 3 -24 5 0 11 9 14 20 6 24 -8 27 -17 4z"/>
<path d="M742 880 c0 -14 2 -19 5 -12 2 6 2 18 0 25 -3 6 -5 1 -5 -13z"/>
<path d="M1136 850 c-9 -17 -14 -30 -9 -30 8 0 35 51 30 56 -2 2 -11 -10 -21
-26z"/>
<path d="M2007 1373 c-11 -11 -8 -20 8 -20 8 0 15 6 15 14 0 14 -12 17 -23 6z"/>
<path d="M1891 1164 c0 -11 3 -14 6 -6 3 7 2 16 -1 19 -3 4 -6 -2 -5 -13z"/>
<path d="M1550 640 c0 -5 5 -10 11 -10 5 0 7 5 4 10 -3 6 -8 10 -11 10 -2 0
-4 -4 -4 -10z"/>
<path d="M2567 2811 c-4 -17 -14 -32 -26 -36 -22 -7 -35 -46 -19 -56 16 -10
28 -2 28 17 0 9 6 14 13 12 8 -3 13 -34 15 -97 2 -55 7 -89 12 -86 9 6 14 -25
13 -87 0 -28 14 -38 22 -15 2 6 5 66 7 132 3 115 4 120 25 123 33 5 52 -34 55
-110 5 -108 38 -59 38 56 l0 39 45 -6 45 -7 0 75 0 75 -134 0 -133 0 -6 -29z"/>
<path d="M2162 2710 c0 -14 2 -19 5 -12 2 6 2 18 0 25 -3 6 -5 1 -5 -13z"/>
<path d="M18 2652 c-10 -2 -18 -9 -18 -17 0 -15 27 -28 41 -19 21 13 7 -19
-18 -41 -16 -13 -26 -26 -23 -29 8 -8 91 75 87 87 -4 13 -45 25 -69 19z"/>
<path d="M1370 2555 c-7 -9 -8 -15 -2 -15 5 0 12 7 16 15 3 8 4 15 2 15 -2 0
-9 -7 -16 -15z"/>
<path d="M2757 2520 c3 -11 11 -20 18 -20 13 0 55 -62 55 -81 0 -6 -14 -28
-32 -50 -17 -21 -29 -41 -26 -44 3 -3 20 12 37 33 28 36 31 46 31 111 l0 71
-44 0 c-39 0 -44 -2 -39 -20z"/>
<path d="M2610 2416 c0 -8 -5 -16 -12 -18 -14 -5 -2 -28 15 -28 7 0 12 13 12
30 0 17 -3 30 -7 30 -5 0 -8 -6 -8 -14z"/>
<path d="M1386 2398 c3 -5 10 -6 15 -3 13 9 11 12 -6 12 -8 0 -12 -4 -9 -9z"/>
<path d="M13 2393 c-22 -8 -14 -32 12 -39 31 -8 31 -11 -2 -48 -30 -33 -7 -20
40 23 32 29 36 61 8 61 -11 0 -25 2 -33 4 -7 3 -19 2 -25 -1z"/>
<path d="M2576 2194 c-11 -28 -8 -211 3 -233 6 -11 14 -51 17 -90 4 -39 10
-68 14 -66 4 3 11 -10 16 -28 7 -25 9 -13 12 61 l3 93 32 -3 c43 -4 54 -31 61
-143 3 -49 5 -94 6 -100 0 -5 5 -3 10 5 5 8 10 38 10 67 0 56 8 65 53 52 25
-7 27 -5 27 21 0 22 -4 28 -15 24 -8 -4 -27 -3 -41 0 -20 5 -25 12 -22 34 3
24 7 27 41 27 l37 0 0 116 0 116 -29 -5 c-25 -3 -32 1 -45 27 -11 21 -24 31
-40 31 -13 0 -50 3 -83 6 -52 6 -61 4 -67 -12z"/>
<path d="M779 2188 c-4 -14 -8 -46 -13 -120 -7 -85 -7 -86 14 -81 30 8 40 41
40 129 0 67 -2 74 -20 74 -11 0 -20 -1 -21 -2z"/>
<path d="M12 1982 c-19 -6 -14 -34 5 -30 10 1 24 -1 31 -5 15 -10 32 -1 32 17
0 14 -46 26 -68 18z"/>
<path d="M10 1905 c-11 -13 -10 -14 4 -9 9 3 16 10 16 15 0 13 -6 11 -20 -6z"/>
<path d="M513 1889 c-4 -12 -11 -18 -20 -15 -8 3 -11 1 -8 -4 11 -17 30 -11
42 15 7 16 7 25 1 25 -5 0 -12 -9 -15 -21z"/>
<path d="M411 1874 c0 -11 3 -14 6 -6 3 7 2 16 -1 19 -3 4 -6 -2 -5 -13z"/>
<path d="M2050 1879 c0 -14 41 -32 51 -22 5 5 -4 14 -21 20 -17 6 -30 7 -30 2z"/>
<path d="M658 1873 c7 -3 16 -2 19 1 4 3 -2 6 -13 5 -11 0 -14 -3 -6 -6z"/>
<path d="M2800 1690 c-18 -23 -30 -44 -26 -47 6 -6 20 8 53 55 28 41 6 34 -27
-8z"/>
<path d="M13 1693 c-17 -6 -17 -39 0 -46 29 -11 62 -2 62 17 0 20 -38 37 -62
29z"/>
<path d="M265 1610 c-3 -5 -1 -10 4 -10 6 0 11 5 11 10 0 6 -2 10 -4 10 -3 0
-8 -4 -11 -10z"/>
<path d="M305 1460 c-3 -5 -2 -10 4 -10 5 0 13 5 16 10 3 6 2 10 -4 10 -5 0
-13 -4 -16 -10z"/>
<path d="M2440 1463 c0 -5 5 -15 10 -23 9 -13 11 -13 19 0 5 8 7 18 5 22 -6
10 -34 11 -34 1z"/>
<path d="M2775 1319 c-4 -11 -23 -13 -86 -11 -49 2 -86 -1 -92 -7 -6 -6 -21
-11 -33 -11 -39 0 -54 -11 -54 -40 0 -34 15 -45 51 -42 26 3 26 2 32 -73 3
-42 10 -82 16 -88 5 -7 13 -47 17 -90 4 -43 9 -75 11 -73 3 3 7 35 9 72 3 37
7 71 10 76 3 4 18 8 34 8 23 0 31 -5 34 -22 13 -58 26 -172 26 -222 0 -66 16
-118 30 -96 6 8 7 29 4 46 -3 18 -2 34 3 37 13 8 4 64 -12 77 -19 16 -7 49 32
87 18 19 33 43 33 55 0 20 -1 20 -23 -5 -31 -36 -37 -34 -37 13 0 38 2 40 30
40 l30 0 0 113 c0 113 0 113 -30 142 -22 21 -31 25 -35 14z"/>
<path d="M7 1303 c-14 -13 -6 -33 13 -33 11 0 20 -5 20 -12 0 -8 7 -5 18 5 16
17 16 19 -2 33 -21 15 -39 18 -49 7z"/>
<path d="M21 1003 c-1 -13 -5 -23 -11 -23 -6 0 -10 -59 -10 -158 l0 -157 29
-13 c35 -16 57 -17 92 -8 15 4 29 3 33 -2 7 -12 76 -5 93 10 7 5 10 14 7 20
-3 5 6 24 20 42 14 19 23 36 20 39 -3 3 3 12 15 19 26 16 29 43 4 34 -16 -6
-16 -5 1 11 14 14 20 15 23 5 4 -10 8 -10 21 0 13 11 15 10 9 -4 -3 -10 -3
-18 2 -18 5 0 11 8 13 18 5 16 -1 19 -43 20 -60 1 -69 6 -69 38 0 32 -32 44
-121 44 l-69 0 0 30 c0 25 -4 29 -22 27 -15 -1 -24 5 -29 23 -7 24 -7 24 -8 3z
m33 -79 c6 -16 -9 -44 -23 -44 -4 0 -8 14 -9 30 -3 33 21 43 32 14z"/>
<path d="M2831 834 c0 -11 3 -14 6 -6 3 7 2 16 -1 19 -3 4 -6 -2 -5 -13z"/>
<path d="M398 793 c-10 -2 -18 -9 -18 -15 0 -5 -10 -18 -22 -27 l-21 -18 31 2
c36 2 38 -2 17 -32 -9 -12 -11 -24 -6 -27 5 -4 12 0 14 6 4 10 8 9 16 -2 7 -9
11 -10 11 -3 0 6 -4 14 -10 18 -14 8 0 36 32 63 15 13 28 28 28 34 0 6 -6 5
-15 -2 -10 -9 -15 -9 -15 -1 0 11 -11 12 -42 4z"/>
<path d="M2830 790 c0 -5 -7 -10 -15 -10 -8 0 -15 -7 -15 -15 0 -8 9 -15 20
-15 15 0 20 7 20 25 0 14 -2 25 -5 25 -3 0 -5 -4 -5 -10z"/>
<path d="M312 677 c-26 -27 -28 -39 -7 -31 16 7 40 43 33 50 -3 2 -14 -6 -26
-19z"/>
<path d="M340 665 c0 -8 -4 -15 -10 -15 -18 0 -10 -18 10 -23 24 -6 34 6 25
33 -7 23 -25 27 -25 5z"/>
<path d="M2760 670 c-1 -5 -6 -42 -12 -111 -5 -54 -22 -69 -79 -69 -26 0 -49
-3 -51 -7 -2 -5 -1 -53 2 -108 l5 -100 69 0 c38 -1 79 5 93 12 13 7 30 10 38
6 13 -4 15 13 15 111 l0 116 -25 0 c-22 0 -25 4 -25 35 0 41 5 43 31 13 l18
-23 1 31 c0 33 -25 64 -53 64 -8 0 -18 8 -20 18 -3 9 -6 15 -7 12z m-93 -282
c-2 -13 -4 -5 -4 17 -1 22 1 32 4 23 2 -10 2 -28 0 -40z m13 -76 c0 -13 -4
-20 -10 -17 -5 3 -10 21 -10 38 0 24 3 28 10 17 5 -8 10 -25 10 -38z"/>
<path d="M0 620 c0 -17 3 -19 19 -8 21 13 19 28 -5 28 -8 0 -14 -9 -14 -20z"/>
<path d="M227 593 c-10 -18 -17 -63 -10 -64 40 -6 83 0 83 12 0 6 -10 10 -22
9 -45 -4 -50 -1 -44 25 6 24 2 34 -7 18z"/>
<path d="M1 541 c0 -24 1 -24 9 -6 7 17 9 17 9 3 1 -12 9 -18 27 -18 21 0 25
4 22 23 -2 17 -10 22 -35 23 -29 1 -33 -2 -32 -25z"/>
<path d="M285 489 c-16 -5 -41 -9 -55 -8 -14 1 -60 1 -102 0 -79 -1 -100 -13
-54 -31 38 -14 41 -30 7 -30 -17 0 -31 -4 -31 -10 0 -5 -8 -10 -17 -10 -15 0
-15 -2 -4 -9 8 -5 20 -7 27 -4 7 2 23 -1 35 -8 22 -11 22 -13 4 -19 -10 -4
-36 -3 -57 0 l-38 7 0 -55 0 -55 60 7 c33 4 95 16 138 28 42 11 93 24 112 28
30 7 31 8 10 10 -14 2 -48 3 -77 4 -34 1 -58 7 -68 17 -15 15 -14 17 19 23 20
4 41 4 47 1 5 -4 18 -3 27 1 9 4 29 6 45 5 15 -2 27 2 27 7 0 6 16 9 35 7 19
-2 35 1 35 6 0 5 -11 9 -23 9 -13 0 -32 8 -41 19 -14 15 -15 21 -4 33 33 35 9
47 -57 27z m31 -60 c3 -22 2 -22 -9 -7 -11 14 -16 15 -26 5 -9 -9 -14 -9 -21
3 -13 21 -2 31 27 27 19 -2 27 -10 29 -28z m-122 3 c2 -4 -4 -9 -15 -9 -11 -1
-17 2 -14 8 7 11 22 12 29 1z m54 -3 c-2 -6 -8 -10 -13 -10 -5 0 -11 4 -13 10
-2 6 4 11 13 11 9 0 15 -5 13 -11z"/>
<path d="M0 426 c0 -7 7 -13 15 -13 19 0 19 13 0 21 -9 3 -15 0 -15 -8z"/>
<path d="M420 319 c0 -5 5 -7 10 -4 6 3 10 8 10 11 0 2 -4 4 -10 4 -5 0 -10
-5 -10 -11z"/>
<path d="M325 296 c-22 -7 -54 -20 -72 -29 -18 -9 -43 -17 -56 -17 -13 0 -27
-3 -30 -7 -4 -3 -26 -7 -49 -8 -24 -2 -45 -4 -48 -5 -3 -1 -20 -1 -37 0 l-33
2 0 -116 0 -116 236 0 c196 0 235 2 225 13 -6 8 -12 44 -15 81 -3 52 -9 73
-26 91 -20 22 -21 25 -6 53 21 41 20 62 -3 62 -11 0 -25 2 -33 4 -7 3 -31 -1
-53 -8z m-115 -276 c0 -5 -5 -10 -11 -10 -5 0 -7 5 -4 10 3 6 8 10 11 10 2 0
4 -4 4 -10z"/>
<path d="M2788 249 c-2 -7 -26 -14 -53 -16 -27 -3 -63 -10 -79 -17 l-30 -12
65 -21 c35 -12 65 -17 67 -12 3 8 60 -26 74 -46 4 -5 8 23 8 63 0 70 -1 72
-24 72 -13 0 -26 -5 -28 -11z"/>
<path d="M524 104 c4 -10 2 -13 -6 -8 -8 5 -9 2 -5 -9 3 -10 3 -17 -2 -17 -10
0 -19 -40 -13 -58 2 -7 19 -12 37 -12 l33 0 -14 38 c-7 20 -13 47 -14 60 0 12
-5 22 -11 22 -6 0 -8 -7 -5 -16z"/>
<path d="M2746 94 c-3 -9 -6 -17 -6 -18 0 -2 15 -3 33 -4 31 -1 31 0 9 12 -12
6 -19 15 -16 19 4 4 3 7 -3 7 -6 0 -14 -7 -17 -16z"/>
<path d="M2760 60 c0 -5 5 -10 11 -10 5 0 7 5 4 10 -3 6 -8 10 -11 10 -2 0 -4
-4 -4 -10z"/>
</g>
</svg>
